<svg data-v-b976d148="" width="21px" height="12px" viewBox="0 0 21 12" version="1.1" xmlns="http://www.w3.org/2000/svg" xmlns:xlink="http://www.w3.org/1999/xlink"><g data-v-b976d148="" id="页面-1" stroke="none" stroke-width="1" fill="none" fill-rule="evenodd"><g data-v-b976d148="" id="Apple-TV" transform="translate(-1838.000000, -947.000000)" fill="#FFFFFF" fill-rule="nonzero"><g data-v-b976d148="" id="侧边icon" transform="translate(1824.000000, 703.000000)"><g data-v-b976d148="" id="返回" transform="translate(0.000000, 225.000000)"><path data-v-b976d148="" d="M24.7142842,31.0237924 C23.6666775,31.0237924 22.7500217,30.6309399 21.9643168,29.845235 L14.5001196,21.464382 C13.9763163,20.9405787 14.1072671,20.1548737 14.6310704,19.6310704 C15.1548737,19.1072671 15.9405787,19.2382179 16.464382,19.7620212 L24.05953,28.1428742 C24.1904808,28.2738251 24.4523825,28.4047759 24.7142842,28.4047759 C24.9761858,28.4047759 25.2380875,28.2738251 25.4999891,28.0119234 L32.7022847,19.6310704 C33.226088,19.1072671 34.011793,18.9763163 34.5355963,19.5001196 C35.0593996,20.0239229 35.1903504,20.8096278 34.6665471,21.3334312 L27.4642516,29.7142842 C26.8094974,30.63094 25.8928416,31.0237924 24.7142842,31.0237924 C24.845235,31.0237924 24.7142842,31.0237924 24.7142842,31.0237924 Z" id="路径" transform="translate(24.583333, 25.095230) scale(-1, -1) translate(-24.583333, -25.095230) "></path></g></g></g></g></svg>