<svg data-v-b976d148="" width="26px" height="20px" viewBox="0 0 26 20" version="1.1" xmlns="http://www.w3.org/2000/svg" xmlns:xlink="http://www.w3.org/1999/xlink"><g data-v-b976d148="" id="页面-1" stroke="none" stroke-width="1" fill="none" fill-rule="evenodd"><g data-v-b976d148="" id="Apple-TV" transform="translate(-1836.000000, -868.000000)" fill="#FFFFFF" fill-rule="nonzero"><g data-v-b976d148="" id="侧边icon" transform="translate(1824.000000, 703.000000)"><g data-v-b976d148="" id="汽车" transform="translate(0.000000, 150.000000)"><g data-v-b976d148="" id="dkw_汽车" transform="translate(12.500000, 15.000000)"><path data-v-b976d148="" d="M23.1253749,8.74325135 C23.6352729,9.9880024 24.370126,11.2477504 24.370126,12.4925015 L24.370126,18.7462507 C24.370126,19.5710858 23.6652669,19.9910018 22.4955009,19.9910018 C21.3257349,19.9910018 20.6208758,19.4811038 20.6208758,18.7462507 L20.6208758,17.5014997 L4.37912418,17.5014997 L4.37912418,18.7462507 C4.37912418,19.4961008 3.67426515,19.9910018 2.5044991,19.9910018 C1.33473305,19.9910018 0.629874025,19.5560888 0.629874025,18.7462507 L0.629874025,12.4925015 C0.629874025,11.2477504 1.37972406,9.9880024 1.87462507,8.74325135 C2.3845231,7.4985003 0,7.64847031 0,6.86862627 C0,6.08878224 0.149970006,5.62387522 1.24475105,5.62387522 L3.11937612,5.62387522 C3.11937612,5.62387522 4.00419916,3.07438512 4.36412717,1.87462507 C4.72405519,0.674865027 6.23875225,0 7.4835033,0 L17.4865027,0 C18.7312537,0 20.2459508,0.674865027 20.6058788,1.87462507 C20.9658068,3.07438512 21.8506299,5.62387522 21.8506299,5.62387522 L23.755249,5.62387522 C24.85003,5.62387522 25,6.08878224 25,6.86862627 C25,7.64847031 22.6304739,7.4985003 23.1253749,8.74325135 L23.1253749,8.74325135 Z M9.38812238,13.1223755 C9.38812238,13.4673065 9.67306539,13.7522496 10.0179964,13.7522496 L15.0119976,13.7522496 C15.3569286,13.7522496 15.6418716,13.4673065 15.6418716,13.1223755 L15.6418716,12.4925015 C15.6418716,12.1475705 15.3569286,11.8626275 15.0119976,11.8626275 L10.0179964,11.8626275 C9.67306539,11.8626275 9.38812238,12.1475705 9.38812238,12.4925015 L9.38812238,13.1223755 Z M3.13437313,13.1223755 C3.13437313,14.1571686 3.97420516,14.9970006 5.0089982,14.9970006 C6.04379124,14.9970006 6.88362328,14.1571686 6.88362328,13.1223755 C6.88362328,12.0875825 6.04379124,11.2477504 5.0089982,11.2477504 C3.97420516,11.2477504 3.13437313,12.0875825 3.13437313,13.1223755 Z M20.6358728,5.62387522 C20.6358728,4.9940012 19.3911218,2.5044991 19.3911218,2.5044991 L5.63887223,2.5044991 C5.63887223,2.5044991 4.39412118,5.0089982 4.39412118,5.62387522 L4.39412118,6.25374925 C4.39412118,6.94361128 4.9490102,7.4985003 5.63887223,7.4985003 L19.3911218,7.4985003 C20.0809838,7.4985003 20.6358728,6.94361128 20.6358728,6.25374925 L20.6358728,6.25374925 L20.6358728,5.62387522 L20.6358728,5.62387522 Z M20.0059988,11.2477504 C18.9712058,11.2477504 18.1313737,12.0875825 18.1313737,13.1223755 C18.1313737,14.1571686 18.9712058,14.9970006 20.0059988,14.9970006 C21.0407918,14.9970006 21.8806239,14.1571686 21.8806239,13.1223755 C21.8806239,12.0875825 21.0407918,11.2477504 20.0059988,11.2477504 Z" id="形状"></path></g></g></g></g></g></svg>