<svg data-v-b976d148="" width="21px" height="21px" viewBox="0 0 21 21" version="1.1" xmlns="http://www.w3.org/2000/svg" xmlns:xlink="http://www.w3.org/1999/xlink"><g data-v-b976d148="" id="页面-1" stroke="none" stroke-width="1" fill="none" fill-rule="evenodd"><g data-v-b976d148="" id="Apple-TV" transform="translate(-1839.000000, -718.000000)" fill="#FFFFFF"><g data-v-b976d148="" id="facebook" transform="translate(1824.000000, 703.000000)"><path data-v-b976d148="" d="M16.1458333,15 C15.5104167,15 15,15.5104167 15,16.1458333 L15,34.6875 C15,35.3229167 15.5104167,35.8333333 16.1458333,35.8333333 L26.125,35.8333333 L26.125,27.7604167 L23.40625,27.7604167 L23.40625,24.625 L26.125,24.625 L26.125,22.3020833 C26.125,19.6145833 27.7708333,18.1458333 30.1666667,18.1458333 C31.3125,18.1458333 32.3020833,18.2291667 32.59375,18.2708333 L32.59375,21.0833333 L30.9270833,21.0833333 C29.625,21.0833333 29.375,21.7083333 29.375,22.625 L29.375,24.6354167 L32.4895833,24.6354167 L32.0833333,27.78125 L29.375,27.78125 L29.375,35.8333333 L34.6875,35.8333333 C35.3229167,35.8333333 35.8333333,35.3229167 35.8333333,34.6875 L35.8333333,16.1458333 C35.8333333,15.5104167 35.3229167,15 34.6875,15 L16.1458333,15 Z"></path></g></g></g></svg>