<svg height="200" p-id="2080" t="1634627278513" version="1.1" viewBox="0 0 1024 1024" width="200" xmlns="http://www.w3.org/2000/svg" xmlns:xlink="http://www.w3.org/1999/xlink" class="privacy_all" data-v-b607d5f8=""><path d="M512.6 136.4c-206.4 0-373.7 167.3-373.7 373.7s167.3 373.7 373.7 373.7 373.7-167.3 373.7-373.7S719 136.4 512.6 136.4z m35.2 573c0 8.8-7.2 15.9-15.9 15.9h-38.5c-8.8 0-15.9-7.2-15.9-15.9V453.3c0-8.8 7.2-15.9 15.9-15.9h38.5c8.8 0 15.9 7.2 15.9 15.9v256.1z m-35.2-344.2c-19.4 0-35.2-15.8-35.2-35.2 0-19.4 15.8-35.2 35.2-35.2 19.4 0 35.2 15.8 35.2 35.2 0 19.4-15.8 35.2-35.2 35.2z" fill="#999999" p-id="2081" data-v-b607d5f8=""></path></svg>