<svg data-v-b976d148="" width="21px" height="21px" viewBox="0 0 21 21" version="1.1" xmlns="http://www.w3.org/2000/svg" xmlns:xlink="http://www.w3.org/1999/xlink"><g data-v-b976d148="" id="页面-1" stroke="none" stroke-width="1" fill="none" fill-rule="evenodd"><g data-v-b976d148="" id="Apple-TV" transform="translate(-1839.000000, -792.000000)" fill="#FFFFFF" fill-rule="nonzero"><g data-v-b976d148="" id="侧边icon" transform="translate(1824.000000, 703.000000)"><g data-v-b976d148="" id="电话" transform="translate(0.000000, 75.000000)"><path data-v-b976d148="" d="M35.4270976,30.6851541 L31.1043534,26.3622362 C30.5613604,25.8205686 29.6823996,25.8205686 29.1394065,26.3622362 L28.1569331,27.3447097 C27.6011766,27.9004663 25.8015673,27.3473148 24.2272131,25.7727869 C22.6528588,24.1982591 22.0986654,22.3995182 22.6552903,21.8430669 L23.6377638,20.8605935 C24.1794314,20.3176004 24.1794314,19.4386396 23.6377638,18.8956466 L19.3148459,14.5729024 C18.7719124,14.0312547 17.8930063,14.0312547 17.3500727,14.5729024 L16.3675993,15.5553758 C15.6416422,16.2813329 15.1994684,17.2361922 15.0530613,18.3935552 C14.9172483,19.4670338 15.0424672,20.6709415 15.4250708,21.9712382 C16.1925359,24.5832942 17.9233704,27.3294264 20.2973193,29.7026807 C22.6712683,32.0759349 25.4168795,33.8074641 28.0280671,34.5749292 C28.990047,34.857844 29.8988826,35.0000922 30.7412012,35.0000922 C31.0304456,35.0005575 31.3194326,34.9828076 31.6064448,34.9469387 C32.7638078,34.8005316 33.7186671,34.3583578 34.4446242,33.6324007 L35.4270976,32.6499273 C35.9687453,32.1069937 35.9687453,31.2280876 35.4270976,30.6851541 Z" id="路径"></path></g></g></g></g></svg>