<svg data-v-5d88d9b6="" t="1693901267256" viewBox="0 0 1024 1024" version="1.1" xmlns="http://www.w3.org/2000/svg" p-id="5088" width="200" height="200" class="icon tiktok"><path data-v-5d88d9b6="" d="M0 0m512 0l0 0q512 0 512 512l0 0q0 512-512 512l0 0q-512 0-512-512l0 0q0-512 512-512Z" p-id="5089"></path> <path data-v-5d88d9b6="" d="M760.968533 462.9504a239.9232 239.9232 0 0 1-140.219733-44.817067v204.117334a185.6512 185.6512 0 1 1-160.1536-184.0128v102.7072a85.333333 85.333333 0 1 0 59.665067 81.3056v-399.0528h100.522666a138.376533 138.376533 0 0 0 2.218667 25.326933 139.537067 139.537067 0 0 0 61.44 91.613867 138.683733 138.683733 0 0 0 76.526933 23.005866z" fill="#FFFFFF" p-id="5090" class="icon-center"></path></svg>